<svg width="20" height="28" viewBox="0 0 20 28" fill="none" xmlns="http://www.w3.org/2000/svg">
    <path
        d="M19.7988 7.67164H0.149203C0.0681866 7.67164 0.00585938 7.60932 0.00585938 7.5283V7.24786C0.00585938 3.24689 3.25275 0 7.25372 0H12.7068C16.7077 0 19.9546 3.24689 19.9546 7.24786V7.5283C19.9422 7.60932 19.8798 7.67164 19.7988 7.67164Z"
        fill="#0C87C9" />
    <path
        d="M12.2709 20.3281H0C0 24.5659 3.43385 27.9998 7.67163 27.9998H19.9425C19.9425 23.762 16.5087 20.3281 12.2709 20.3281Z"
        fill="#0C87C9" />
    <path d="M8.81833 20.3305H0V7.21205C0 3.23601 3.22819 0.0078125 7.20423 0.0078125H8.81833V20.3305Z"
        fill="url(#paint0_linear_2557_6241)" />
    <defs>
        <linearGradient id="paint0_linear_2557_6241" x1="4.37395" y1="0.155823" x2="4.48918" y2="31.842"
            gradientUnits="userSpaceOnUse">
            <stop offset="0.00457872" stop-color="#0C87C9" />
            <stop offset="1" stop-color="#36499D" />
        </linearGradient>
    </defs>
</svg>