<svg width="12" height="17" viewBox="0 0 12 17" fill="currentColor" xmlns="http://www.w3.org/2000/svg">
<path d="M11.8284 4.90863H0.54334C0.532422 4.90901 0.521541 4.90714 0.511376 4.90314C0.501211 4.89914 0.49198 4.89309 0.484255 4.88536C0.47653 4.87764 0.470479 4.8684 0.466476 4.85824C0.462473 4.84807 0.460603 4.83719 0.460987 4.82627V4.66706C0.460986 3.56236 0.899639 2.50287 1.68052 1.72147C2.4614 0.940077 3.5206 0.500728 4.6253 0.5H7.75471C8.85941 0.500728 9.91861 0.940077 10.6995 1.72147C11.4804 2.50287 11.919 3.56236 11.919 4.66706V4.82627C11.9164 4.84861 11.9058 4.86925 11.8891 4.88438C11.8725 4.89951 11.8509 4.90812 11.8284 4.90863Z" fill="currentColor"/>
<path d="M7.5037 12.1875H0.457035C0.455575 13.3546 0.917237 14.4746 1.74069 15.3016C2.56415 16.1287 3.68211 16.5952 4.84919 16.5989H11.9096C11.9099 16.0199 11.7963 15.4466 11.575 14.9116C11.3538 14.3765 11.0294 13.8903 10.6203 13.4807C10.2111 13.0711 9.72534 12.746 9.1906 12.5241C8.65586 12.3022 8.08265 12.1879 7.5037 12.1875Z" fill="currentColor"/>
<path d="M5.5135 12.1909H0.457032V4.65017C0.456672 4.10654 0.563388 3.56818 0.771089 3.0658C0.978791 2.56342 1.28341 2.10687 1.66755 1.72222C2.0517 1.33756 2.50784 1.03234 3.00994 0.823971C3.51205 0.615604 4.05027 0.508173 4.59389 0.507812H5.5135V12.1909Z" fill="currentColor"/>
</svg>
