<svg width="103" height="29" viewBox="0 0 103 29" fill="currentColor" xmlns="http://www.w3.org/2000/svg">
<path d="M17.375 16.3681V16.3242C17.375 12.901 20.175 10.0352 24.0401 10.0352C27.9052 10.0352 30.664 12.8571 30.664 16.2803V16.3242C30.664 19.7473 27.864 22.6132 23.9962 22.6132C20.1283 22.6132 17.375 19.7912 17.375 16.3681ZM26.5519 16.3681V16.3242C26.5519 14.8583 25.4868 13.612 23.9962 13.612C22.4617 13.612 21.4844 14.8336 21.4844 16.2803V16.3242C21.4844 17.7901 22.5523 19.0336 24.0401 19.0336C25.5774 19.0336 26.5546 17.812 26.5546 16.3681H26.5519Z" fill="currentColor"/>
<path d="M31.6895 16.3682V16.3243C31.6895 12.4125 34.1353 10.0353 36.9793 10.0353C38.802 10.0353 39.8671 10.8588 40.6687 11.7674V6.10156H44.8906V22.3251H40.6687V20.7247C39.8451 21.7239 38.802 22.5914 37.0012 22.5914C34.1573 22.5914 31.6895 20.2141 31.6895 16.3682ZM40.7483 16.3243V16.2804C40.7483 14.702 39.6502 13.5682 38.3024 13.5682C36.9546 13.5682 35.8318 14.68 35.8318 16.2804V16.3243C35.8318 17.9247 36.9436 19.0694 38.3024 19.0694C39.6612 19.0694 40.7346 17.9247 40.7346 16.3243H40.7483Z" fill="currentColor"/>
<path d="M46.3555 16.3681V16.3242C46.3555 12.8132 48.8672 10.0352 52.4221 10.0352C56.5782 10.0352 58.4888 13.0795 58.4888 16.6234C58.4888 16.8979 58.4888 17.2026 58.4668 17.4908H50.4237C50.7559 18.803 51.7111 19.4673 53.0233 19.4673C54.0225 19.4673 54.8214 19.0912 55.6888 18.2457L58.0221 20.1673C56.8664 21.6359 55.2002 22.6132 52.8064 22.6132C49.0237 22.6132 46.3555 20.1014 46.3555 16.3681ZM54.5331 15.325C54.3794 13.9908 53.5998 13.1454 52.4441 13.1454C51.3323 13.1454 50.5774 14.0128 50.3551 15.325H54.5331Z" fill="currentColor"/>
<path d="M64.2024 20.8702V22.3251H59.9805V6.10156H64.2024V11.902C65.026 10.9027 66.0471 10.0353 67.8452 10.0353C70.7138 10.0353 73.1789 12.4125 73.1789 16.2584V16.3023C73.1789 20.2141 70.7083 22.5914 67.8699 22.5914C67.1667 22.6101 66.4689 22.4643 65.8322 22.1654C65.1954 21.8666 64.6373 21.423 64.2024 20.8702ZM69.0256 16.338V16.2941C69.0256 14.7157 67.9275 13.582 66.555 13.582C65.1824 13.582 64.1091 14.7157 64.1091 16.2941V16.338C64.1091 17.9384 65.2071 19.0831 66.555 19.0831C67.9028 19.0831 69.0256 17.9467 69.0256 16.3243V16.338Z" fill="currentColor"/>
<path d="M74.1992 16.3681V16.3242C74.1992 12.8132 76.711 10.0352 80.2659 10.0352C84.422 10.0352 86.3326 13.0795 86.3326 16.6234C86.3326 16.8979 86.3326 17.2026 86.3106 17.4908H78.2675C78.6024 18.803 79.5577 19.4673 80.8671 19.4673C81.869 19.4673 82.6678 19.0912 83.5353 18.2457L85.8686 20.1673C84.7129 21.6359 83.0467 22.6132 80.6529 22.6132C76.8675 22.6132 74.1992 20.1014 74.1992 16.3681ZM82.3769 15.325C82.2204 13.9908 81.4435 13.1454 80.2878 13.1454C79.1761 13.1454 78.4212 14.0128 78.1988 15.325H82.3769Z" fill="currentColor"/>
<path d="M87.9258 6.10156H92.1477V22.3251H87.9258V6.10156Z" fill="currentColor"/>
<path d="M94.2695 6.10156H98.4915V22.3251H94.2695V6.10156Z" fill="currentColor"/>
<path d="M16.8284 10.9086H5.54334C5.53242 10.909 5.52154 10.9071 5.51138 10.9031C5.50121 10.8991 5.49198 10.8931 5.48425 10.8854C5.47653 10.8776 5.47048 10.8684 5.46648 10.8582C5.46247 10.8481 5.4606 10.8372 5.46099 10.8263V10.6671C5.46099 9.56236 5.89964 8.50287 6.68052 7.72147C7.4614 6.94008 8.5206 6.50073 9.6253 6.5H12.7547C13.8594 6.50073 14.9186 6.94008 15.6995 7.72147C16.4804 8.50287 16.919 9.56236 16.919 10.6671V10.8263C16.9164 10.8486 16.9058 10.8692 16.8891 10.8844C16.8725 10.8995 16.8509 10.9081 16.8284 10.9086Z" fill="currentColor"/>
<path d="M12.5037 18.1875H5.45703C5.45557 19.3546 5.91724 20.4746 6.74069 21.3016C7.56415 22.1287 8.68211 22.5952 9.84919 22.5989H16.9096C16.9099 22.0199 16.7963 21.4466 16.575 20.9116C16.3538 20.3765 16.0294 19.8903 15.6203 19.4807C15.2111 19.0711 14.7253 18.746 14.1906 18.5241C13.6559 18.3022 13.0827 18.1879 12.5037 18.1875Z" fill="currentColor"/>
<path d="M10.5135 18.1909H5.45703V10.6502C5.45667 10.1065 5.56339 9.56818 5.77109 9.0658C5.97879 8.56342 6.28341 8.10687 6.66755 7.72222C7.0517 7.33756 7.50784 7.03234 8.00994 6.82397C8.51205 6.6156 9.05027 6.50817 9.59389 6.50781H10.5135V18.1909Z" fill="currentColor"/>
</svg>
