<svg width="407" height="73" viewBox="0 0 407 73" fill="none" xmlns="http://www.w3.org/2000/svg">
<path d="M52.7832 45.3856V45.1941C52.7832 30.2612 64.9974 17.7598 81.8579 17.7598C98.7183 17.7598 110.753 30.0697 110.753 45.0026V45.1941C110.753 60.1265 98.5386 72.6282 81.6664 72.6282C64.7937 72.6282 52.7832 60.318 52.7832 45.3856ZM92.8149 45.3856V45.1941C92.8149 38.7995 88.1687 33.3628 81.6664 33.3628C74.9725 33.3628 70.7093 38.6917 70.7093 45.0026V45.1941C70.7093 51.5887 75.3678 57.0131 81.8579 57.0131C88.5639 57.0131 92.8267 51.6842 92.8267 45.3856H92.8149Z" fill="#12679B"/>
<path d="M115.221 45.3852V45.1937C115.221 28.1294 125.89 17.7595 138.296 17.7595C146.247 17.7595 150.893 21.3518 154.39 25.3154V0.599609H172.807V71.3706H154.39V64.3893C150.798 68.748 146.247 72.5322 138.392 72.5322C125.986 72.5322 115.221 62.1619 115.221 45.3852ZM154.737 45.1937V45.0022C154.737 38.1168 149.948 33.1709 144.068 33.1709C138.188 33.1709 133.29 38.0208 133.29 45.0022V45.1937C133.29 52.175 138.14 57.1684 144.068 57.1684C149.995 57.1684 154.677 52.175 154.677 45.1937H154.737Z" fill="#12679B"/>
<path d="M179.197 45.3856V45.1941C179.197 29.8782 190.154 17.7598 205.661 17.7598C223.791 17.7598 232.125 31.0399 232.125 46.4993C232.125 47.6967 232.125 49.0259 232.03 50.2831H196.944C198.393 56.0072 202.56 58.905 208.284 58.905C212.642 58.905 216.127 57.2644 219.911 53.5761L230.09 61.9586C225.049 68.365 217.78 72.6282 207.338 72.6282C190.837 72.6282 179.197 61.6711 179.197 45.3856ZM214.87 40.8353C214.199 35.0152 210.799 31.3274 205.757 31.3274C200.907 31.3274 197.614 35.1112 196.644 40.8353H214.87Z" fill="#12679B"/>
<path d="M257.048 65.024V71.3706H238.631V0.599609H257.048V25.9025C260.64 21.5433 265.095 17.7595 272.938 17.7595C285.452 17.7595 296.205 28.1294 296.205 44.9062V45.0977C296.205 62.1619 285.428 72.5322 273.046 72.5322C269.979 72.6138 266.935 71.9778 264.157 70.6739C261.379 69.3705 258.945 67.4354 257.048 65.024ZM278.088 45.2534V45.0619C278.088 38.1766 273.298 33.2311 267.31 33.2311C261.323 33.2311 256.641 38.1766 256.641 45.0619V45.2534C256.641 52.2347 261.431 57.2282 267.31 57.2282C273.19 57.2282 278.088 52.271 278.088 45.1937V45.2534Z" fill="#12679B"/>
<path d="M300.656 45.3856V45.1941C300.656 29.8782 311.613 17.7598 327.121 17.7598C345.25 17.7598 353.585 31.0399 353.585 46.4993C353.585 47.6967 353.585 49.0259 353.489 50.2831H318.403C319.864 56.0072 324.031 58.905 329.743 58.905C334.114 58.905 337.599 57.2644 341.382 53.5761L351.561 61.9586C346.52 68.365 339.251 72.6282 328.809 72.6282C312.296 72.6282 300.656 61.6711 300.656 45.3856ZM336.329 40.8353C335.647 35.0152 332.258 31.3274 327.217 31.3274C322.367 31.3274 319.074 35.1112 318.104 40.8353H336.329Z" fill="#12679B"/>
<path d="M360.529 0.599609H378.947V71.3706H360.529V0.599609Z" fill="#12679B"/>
<path d="M388.211 0.599609H406.628V71.3706H388.211V0.599609Z" fill="#12679B"/>
<path d="M51.3538 20.364H1.15171C1.10317 20.3657 1.05477 20.3574 1.00953 20.3398C0.964336 20.3222 0.923231 20.2959 0.888888 20.2621C0.854501 20.2278 0.827588 20.1875 0.809794 20.1427C0.792 20.0983 0.78368 20.0505 0.785371 20.0026V19.3036C0.785371 14.4532 2.73671 9.8015 6.21052 6.37073C9.68428 2.94 14.3962 1.01102 19.3104 1.00781H33.2318C38.1461 1.01102 42.858 2.94 46.3318 6.37073C49.8052 9.8015 51.7568 14.4532 51.7568 19.3036V20.0026C51.7448 20.1005 51.6976 20.191 51.6238 20.2577C51.5495 20.324 51.4538 20.3618 51.3538 20.364Z" fill="#12679B"/>
<path d="M32.1475 52.625H0.785172C0.778674 57.9167 2.83338 62.9949 6.49829 66.7445C10.1633 70.4947 15.1389 72.6098 20.3333 72.6266H51.7568C51.7586 70.0014 51.2525 67.402 50.268 64.9763C49.2835 62.5501 47.8393 60.3456 46.0185 58.4885C44.1977 56.6313 42.0356 55.1573 39.6554 54.1512C37.2756 53.1451 34.7245 52.6268 32.1475 52.625Z" fill="#37C8FC"/>
<path d="M23.3675 53.27H0.78516V19.5381C0.783553 17.1061 1.26017 14.6978 2.18777 12.4505C3.11537 10.2032 4.47582 8.16092 6.19146 6.44026C7.90705 4.71955 9.9442 3.3542 12.1867 2.4221C14.4291 1.48999 16.8328 1.00942 19.2607 1.00781H23.3675V53.27Z" fill="#12679B"/>
</svg>
